<svg xmlns="http://www.w3.org/2000/svg" width="32" height="32" viewBox="0 0 32 32">
  <defs>
    <linearGradient id="bg" x1="5" y1="1" x2="27" y2="31" gradientUnits="userSpaceOnUse">
      <stop offset="0" stop-color="#ff9d12" />
      <stop offset="1" stop-color="#ff422f" />
    </linearGradient>
  </defs>
  <rect width="32" height="32" fill="url(#bg)" />
  <rect x="20.7" y="8.2" width="4.1" height="16.8" rx="1.9" fill="#fff2df" opacity="0.92" />
  <path
    d="M8.6 7.8 20.8 6.2c1.6-.2 2.9 1.1 2.9 2.7v16.3c0 1.7-1.4 3-3.1 2.7L8.4 26.2c-1.3-.2-2.2-1.3-2.2-2.6V10.5c0-1.4 1-2.5 2.4-2.7Z"
    fill="#fffaf2"
  />
  <g fill="none" stroke="#f36b1a" stroke-linecap="round" stroke-linejoin="round">
    <path d="M10 14.2c4.2.3 7.6 3.7 7.9 7.9" stroke-width="2.3" />
    <path d="M10 10.6c6.1.4 11 5.3 11.4 11.5" stroke-width="2.3" />
  </g>
  <circle cx="10.4" cy="22.3" r="1.7" fill="#f36b1a" />
</svg>
